<svg width="18" height="17" viewBox="0 0 18 17" fill="none" xmlns="http://www.w3.org/2000/svg">
<g id="online-class">
<path id="Path 35035" d="M14.9969 13.9783H1.49691C1.23355 13.9783 0.980973 13.8736 0.794749 13.6874C0.608526 13.5012 0.503906 13.2486 0.503906 12.9853V3.52425C0.503906 3.26089 0.608526 3.00832 0.794749 2.82209C0.980973 2.63587 1.23355 2.53125 1.49691 2.53125H10.8379V3.25625H1.49691C1.42583 3.25625 1.35766 3.28449 1.3074 3.33475C1.25714 3.38501 1.22891 3.45317 1.22891 3.52425V12.9812C1.22891 13.0523 1.25714 13.1205 1.3074 13.1708C1.35766 13.221 1.42583 13.2493 1.49691 13.2493H14.9969C15.068 13.2493 15.1362 13.221 15.1864 13.1708C15.2367 13.1205 15.2649 13.0523 15.2649 12.9812V5.49925H15.9899V12.9853C15.9899 13.2486 15.8853 13.5012 15.6991 13.6874C15.5128 13.8736 15.2603 13.9783 14.9969 13.9783Z" fill="#5E6166" stroke="#5E6166" stroke-width="0.4"/>
<path id="Rectangle 7598" d="M15.6262 10.9062H0.865234V11.6313H15.6262V10.9062Z" fill="#5E6166" stroke="#5E6166" stroke-width="0.4"/>
<path id="Path 35036" d="M5.59745 16.4392L5.31845 15.7682L5.45945 16.1012L5.31445 15.7682C5.68956 15.5905 5.9875 15.2828 6.153 14.9022C6.3185 14.5215 6.34033 14.0938 6.21445 13.6982L6.91445 13.5312C7.08259 14.0933 7.04189 14.6972 6.79987 15.2316C6.55784 15.766 6.1308 16.1949 5.59745 16.4392ZM11.1765 16.4392C10.645 16.1949 10.2195 15.7672 9.97777 15.2346C9.73607 14.702 9.69442 14.1001 9.86045 13.5392L10.5855 13.7062C10.4581 14.1008 10.4784 14.5281 10.6424 14.9089C10.8065 15.2896 11.1032 15.5978 11.4775 15.7762L11.1765 16.4392Z" fill="#5E6166" stroke="#5E6166" stroke-width="0.4"/>
<path id="Path 35037" d="M12.7676 16.4676H3.72756C3.63142 16.4676 3.53922 16.4294 3.47124 16.3614C3.40325 16.2934 3.36506 16.2012 3.36506 16.1051C3.36506 16.0089 3.40325 15.9167 3.47124 15.8487C3.53922 15.7808 3.63142 15.7426 3.72756 15.7426H12.7686C12.8647 15.7426 12.9569 15.7808 13.0249 15.8487C13.0929 15.9167 13.1311 16.0089 13.1311 16.1051C13.1311 16.2012 13.0929 16.2934 13.0249 16.3614C12.9569 16.4294 12.8647 16.4676 12.7686 16.4676H12.7676ZM5.42356 7.84056C5.09881 7.84056 4.78134 7.74426 4.51132 7.56384C4.24129 7.38341 4.03083 7.12696 3.90655 6.82693C3.78227 6.52689 3.74976 6.19674 3.81311 5.87822C3.87647 5.55971 4.03286 5.26713 4.26249 5.03749C4.49213 4.80785 4.78471 4.65147 5.10322 4.58811C5.42174 4.52476 5.75189 4.55727 6.05193 4.68155C6.35197 4.80583 6.60841 5.01629 6.78884 5.28632C6.96926 5.55634 7.06556 5.87381 7.06556 6.19856C7.06556 6.63405 6.89257 7.0517 6.58463 7.35963C6.2767 7.66757 5.85905 7.84056 5.42356 7.84056ZM5.42356 5.28156C5.2422 5.28156 5.0649 5.33534 4.9141 5.4361C4.7633 5.53687 4.64577 5.68008 4.57636 5.84764C4.50696 6.0152 4.4888 6.19958 4.52418 6.37746C4.55957 6.55534 4.6469 6.71874 4.77515 6.84698C4.90339 6.97522 5.06678 7.06256 5.24467 7.09794C5.42255 7.13333 5.60692 7.11517 5.77448 7.04576C5.94204 6.97635 6.08526 6.85882 6.18602 6.70802C6.28678 6.55722 6.34056 6.37993 6.34056 6.19856C6.34056 6.07814 6.31684 5.9589 6.27076 5.84764C6.22468 5.73639 6.15713 5.6353 6.07198 5.55015C5.98683 5.46499 5.88574 5.39745 5.77448 5.35137C5.66323 5.30528 5.54399 5.28156 5.42356 5.28156ZM8.37656 11.6286H2.47656V11.2666C2.50101 10.4998 2.82278 9.77262 3.37382 9.23888C3.92485 8.70513 4.66191 8.40669 5.42906 8.40669C6.19621 8.40669 6.93328 8.70513 7.48431 9.23888C8.03534 9.77262 8.35712 10.4998 8.38156 11.2666L8.37656 11.6286ZM3.22556 10.9036H7.62556C7.5405 10.3814 7.27249 9.90652 6.86945 9.56382C6.4664 9.22112 5.95461 9.03295 5.42556 9.03295C4.89652 9.03295 4.38472 9.22112 3.98168 9.56382C3.57864 9.90652 3.31062 10.3814 3.22556 10.9036ZM11.9616 7.22756L11.7336 7.12756C11.6685 7.0925 11.6145 7.04011 11.5774 6.97622C11.5404 6.91232 11.5217 6.83941 11.5236 6.76556V5.85956H11.1506C10.9718 5.85851 10.8007 5.78689 10.6744 5.66028C10.5482 5.53368 10.4771 5.36234 10.4766 5.18356V1.52556C10.4766 1.34681 10.5476 1.17537 10.674 1.04897C10.8004 0.922573 10.9718 0.851562 11.1506 0.851562H16.8236C17.0023 0.851562 17.1738 0.922573 17.3002 1.04897C17.4266 1.17537 17.4976 1.34681 17.4976 1.52556V5.19156C17.4965 5.36999 17.4252 5.54082 17.299 5.66699C17.1728 5.79316 17.002 5.86451 16.8236 5.86556H13.8916L11.9616 7.22756ZM11.2006 5.13956H12.2626V6.12156L13.6686 5.12856H16.7766V1.57656H11.2016L11.2006 5.13956Z" fill="#5E6166" stroke="#5E6166" stroke-width="0.4"/>
</g>
</svg>
