<svg width="14" height="18" viewBox="0 0 14 18" fill="none" xmlns="http://www.w3.org/2000/svg">
<g id="bookmark">
<g id="Group 716">
<path id="Path 943" d="M12.7591 14.592C12.5817 14.5861 12.4093 14.6506 12.2794 14.7715C12.1495 14.8923 12.0728 15.0597 12.0661 15.237C12.0679 15.3216 12.0515 15.4057 12.0178 15.4833C11.9841 15.561 11.9341 15.6305 11.8711 15.687C11.7268 15.8163 11.5398 15.8876 11.346 15.887C11.1709 15.8905 11.0015 15.8243 10.875 15.703L7.22305 12.212C7.08799 12.0865 6.91043 12.0167 6.72605 12.0167C6.54166 12.0167 6.36411 12.0865 6.22905 12.212L2.57705 15.698C2.44912 15.8195 2.27843 15.8856 2.10205 15.882C1.90932 15.8862 1.72202 15.8181 1.57705 15.691C1.51521 15.6355 1.46612 15.5672 1.43315 15.4909C1.40018 15.4146 1.38411 15.3321 1.38605 15.249V3.238C1.39986 2.88334 1.5535 2.54856 1.8134 2.30684C2.0733 2.06512 2.41832 1.93611 2.77305 1.948H10.6731C11.0278 1.93611 11.3728 2.06512 11.6327 2.30684C11.8926 2.54856 12.0462 2.88334 12.06 3.238V12.044C12.083 12.2116 12.166 12.3652 12.2935 12.4764C12.4209 12.5876 12.5844 12.6488 12.7536 12.6488C12.9227 12.6488 13.0862 12.5876 13.2136 12.4764C13.3411 12.3652 13.424 12.2116 13.447 12.044V3.238C13.4197 2.52948 13.1132 1.86054 12.5944 1.37719C12.0756 0.893829 11.3867 0.635293 10.6781 0.658004H2.77805C2.06749 0.632321 1.37576 0.889526 0.854594 1.3732C0.333429 1.85687 0.0253907 2.52751 -0.00195061 3.238V15.248C-0.00237641 15.505 0.0513711 15.7592 0.155787 15.9941C0.260203 16.2289 0.412942 16.4391 0.604048 16.611C1.01243 16.9749 1.54106 17.1747 2.08805 17.172H2.12505C2.66207 17.1723 3.17881 16.9669 3.56905 16.598L6.72405 13.582L9.87905 16.598C10.2694 16.9686 10.7878 17.1742 11.3261 17.172C11.8849 17.18 12.4264 16.9776 12.8431 16.605C13.0344 16.4322 13.1873 16.2211 13.2918 15.9855C13.3964 15.7498 13.4503 15.4948 13.4501 15.237C13.4433 15.0601 13.3668 14.893 13.2374 14.7722C13.108 14.6514 12.936 14.5866 12.7591 14.592Z" fill="#5E6166"/>
</g>
</g>
</svg>
