<svg width="17" height="16" viewBox="0 0 17 16" fill="none" xmlns="http://www.w3.org/2000/svg">
<g id="fi-rr-download_Frame">
<g id="Vector">
<path d="M7.08533 12.0813C7.27107 12.2672 7.4916 12.4146 7.73434 12.5152C7.97707 12.6158 8.23725 12.6676 8.5 12.6676C8.76275 12.6676 9.02293 12.6158 9.26566 12.5152C9.5084 12.4146 9.72893 12.2672 9.91467 12.0813L12.0553 9.94067C12.1701 9.81373 12.2317 9.64751 12.2273 9.47644C12.2229 9.30536 12.1529 9.14253 12.0317 9.02165C11.9106 8.90077 11.7476 8.8311 11.5765 8.82707C11.4054 8.82304 11.2394 8.88496 11.1127 9L9.162 10.9513L9.16667 0.666667C9.16667 0.489856 9.09643 0.320286 8.9714 0.195262C8.84638 0.0702379 8.67681 0 8.5 0C8.32319 0 8.15362 0.0702379 8.0286 0.195262C7.90357 0.320286 7.83333 0.489856 7.83333 0.666667L7.82733 10.9387L5.88733 9C5.76224 8.87499 5.59261 8.8048 5.41576 8.80486C5.23892 8.80493 5.06934 8.87524 4.94433 9.00033C4.81933 9.12543 4.74914 9.29506 4.7492 9.4719C4.74926 9.64875 4.81957 9.81833 4.94467 9.94333L7.08533 12.0813Z" fill="#414347"/>
<path d="M15.8333 10.6667C15.6565 10.6667 15.487 10.7369 15.3619 10.8619C15.2369 10.987 15.1667 11.1565 15.1667 11.3333V14C15.1667 14.1768 15.0964 14.3464 14.9714 14.4714C14.8464 14.5964 14.6768 14.6667 14.5 14.6667H2.5C2.32319 14.6667 2.15362 14.5964 2.0286 14.4714C1.90357 14.3464 1.83333 14.1768 1.83333 14V11.3333C1.83333 11.1565 1.7631 10.987 1.63807 10.8619C1.51305 10.7369 1.34348 10.6667 1.16667 10.6667C0.989856 10.6667 0.820286 10.7369 0.695262 10.8619C0.570238 10.987 0.5 11.1565 0.5 11.3333L0.5 14C0.5 14.5304 0.710714 15.0391 1.08579 15.4142C1.46086 15.7893 1.96957 16 2.5 16H14.5C15.0304 16 15.5391 15.7893 15.9142 15.4142C16.2893 15.0391 16.5 14.5304 16.5 14V11.3333C16.5 11.1565 16.4298 10.987 16.3047 10.8619C16.1797 10.7369 16.0101 10.6667 15.8333 10.6667Z" fill="#414347"/>
</g>
</g>
</svg>
