<svg width="16" height="17" viewBox="0 0 16 17" fill="none" xmlns="http://www.w3.org/2000/svg">
<g id="newspaper">
<path id="Line 484" d="M6 7.65625H11" stroke="#5E6166" stroke-width="1.5" stroke-linecap="round" stroke-linejoin="round"/>
<path id="Line 485" d="M6 9.65625H11" stroke="#5E6166" stroke-width="1.5" stroke-linecap="round" stroke-linejoin="round"/>
<path id="Path 35038" d="M2 13.1562C1.73478 13.1562 1.48043 13.0509 1.29289 12.8634C1.10536 12.6758 1 12.4215 1 12.1562V6.15625M2 13.1562C2.26522 13.1562 2.51957 13.0509 2.70711 12.8634C2.89464 12.6758 3 12.4215 3 12.1562V4.65625C3 4.52364 3.05268 4.39646 3.14645 4.3027C3.24021 4.20893 3.36739 4.15625 3.5 4.15625H13.5C13.6326 4.15625 13.7598 4.20893 13.8536 4.3027C13.9473 4.39646 14 4.52364 14 4.65625V12.1562C14 12.4215 13.8946 12.6758 13.7071 12.8634C13.5196 13.0509 13.2652 13.1562 13 13.1562H2Z" stroke="#5E6166" stroke-width="1.5" stroke-linecap="round" stroke-linejoin="round"/>
</g>
</svg>
