<svg width="16" height="17" viewBox="0 0 16 17" fill="none" xmlns="http://www.w3.org/2000/svg">
<g id="home">
<path id="Path 35041" d="M6.76581 15.6401H3.41681C2.89531 15.6383 2.39559 15.4308 2.02618 15.0627C1.65677 14.6946 1.4475 14.1956 1.44381 13.6741V7.0111C1.44485 6.83167 1.48513 6.65464 1.56183 6.49243C1.63853 6.33022 1.74979 6.18676 1.88781 6.0721L2.47781 5.6351C2.58237 5.52398 2.64485 5.37984 2.65448 5.22756C2.6641 5.07529 2.62026 4.92443 2.53052 4.80103C2.44079 4.67763 2.31079 4.58942 2.16296 4.55165C2.01513 4.51387 1.85875 4.52888 1.72081 4.5941L1.12081 5.0451C0.818944 5.27746 0.573348 5.57489 0.402294 5.91527C0.231239 6.25565 0.139128 6.63021 0.132813 7.0111L0.132812 13.6801C0.134662 14.5505 0.481248 15.3847 1.09672 16.0002C1.71219 16.6157 2.54641 16.9622 3.41681 16.9641H6.76581C6.93966 16.9641 7.10639 16.895 7.22932 16.7721C7.35225 16.6492 7.42131 16.4824 7.42131 16.3086C7.42131 16.1347 7.35225 15.968 7.22932 15.8451C7.10639 15.7222 6.93966 15.6531 6.76581 15.6531V15.6401Z" fill="#5A4BDA"/>
<path id="Path 35042" d="M15.8671 6.99492C15.8633 6.61708 15.7758 6.24478 15.6108 5.90483C15.4459 5.56488 15.2076 5.26573 14.9131 5.02892L9.88214 1.01792C9.34547 0.586653 8.67762 0.351562 7.98914 0.351562C7.30065 0.351562 6.63281 0.586653 6.09614 1.01792L4.50114 2.17492C4.42779 2.22522 4.36523 2.28966 4.31712 2.36446C4.26901 2.43926 4.23632 2.52291 4.22097 2.61051C4.20561 2.69811 4.20791 2.78789 4.22771 2.8746C4.24752 2.9613 4.28444 3.04317 4.33631 3.11542C4.38818 3.18766 4.45395 3.24882 4.52977 3.2953C4.60559 3.34179 4.68993 3.37267 4.77784 3.38613C4.86575 3.39959 4.95546 3.39536 5.04172 3.37369C5.12797 3.35202 5.20903 3.31334 5.28014 3.25992L6.89714 2.05092C7.20471 1.79769 7.59073 1.65922 7.98914 1.65922C8.38755 1.65922 8.77357 1.79769 9.08114 2.05092L14.1121 6.06292C14.2552 6.1763 14.3713 6.3201 14.4519 6.4839C14.5325 6.6477 14.5756 6.82738 14.5781 7.00992V13.6789C14.5781 14.2003 14.371 14.7004 14.0023 15.0691C13.6336 15.4378 13.1336 15.6449 12.6121 15.6449H11.1201C11.0467 15.6449 10.9762 15.6157 10.9243 15.5638C10.8723 15.5118 10.8431 15.4414 10.8431 15.3679V12.3609C10.8431 11.9007 10.6608 11.4591 10.336 11.133C10.0112 10.8069 9.5704 10.6228 9.11014 10.6209H6.92614C6.46466 10.6209 6.02209 10.8042 5.69577 11.1306C5.36946 11.4569 5.18614 11.8994 5.18614 12.3609V13.5109C5.18614 13.6848 5.2552 13.8515 5.37813 13.9744C5.50106 14.0974 5.66779 14.1664 5.84164 14.1664C6.01549 14.1664 6.18222 14.0974 6.30515 13.9744C6.42808 13.8515 6.49714 13.6848 6.49714 13.5109V12.3609C6.49608 12.3048 6.50621 12.2491 6.52694 12.197C6.54767 12.1448 6.57858 12.0974 6.61788 12.0573C6.65717 12.0173 6.70405 11.9855 6.75578 11.9638C6.80751 11.9421 6.86304 11.9309 6.91914 11.9309H9.10314C9.15856 11.9309 9.21343 11.9418 9.26463 11.963C9.31583 11.9843 9.36235 12.0153 9.40154 12.0545C9.44072 12.0937 9.47181 12.1402 9.49302 12.1914C9.51422 12.2426 9.52514 12.2975 9.52514 12.3529V15.3669C9.52934 15.7876 9.69908 16.1897 9.99761 16.4862C10.2961 16.7827 10.6994 16.9496 11.1201 16.9509H12.5761C13.4471 16.9509 14.2824 16.6049 14.8983 15.9891C15.5141 15.3732 15.8601 14.5379 15.8601 13.6669L15.8671 6.99492Z" fill="#5A4BDA"/>
</g>
</svg>
