<svg width="20" height="17" viewBox="0 0 20 17" fill="none" xmlns="http://www.w3.org/2000/svg">
<g id="literature">
<path id="Path 35028" d="M18.1623 16.4421H8.69025C8.57369 16.4421 8.4619 16.3958 8.37948 16.3133C8.29706 16.2309 8.25075 16.1191 8.25075 16.0026C8.25075 15.886 8.29706 15.7742 8.37948 15.6918C8.4619 15.6094 8.57369 15.5631 8.69025 15.5631H17.7223V11.5401H3.16025V15.5641H6.79325C6.90981 15.5641 7.0216 15.6104 7.10402 15.6928C7.18645 15.7752 7.23275 15.887 7.23275 16.0036C7.23275 16.1201 7.18645 16.2319 7.10402 16.3143C7.0216 16.3968 6.90981 16.4431 6.79325 16.4431H2.72025C2.66252 16.4431 2.60535 16.4317 2.55202 16.4095C2.49869 16.3874 2.45025 16.355 2.40948 16.3141C2.3687 16.2733 2.33638 16.2247 2.31438 16.1714C2.29238 16.118 2.28112 16.0608 2.28125 16.0031V11.1031C2.28125 10.9866 2.3275 10.875 2.40983 10.7926C2.49216 10.7103 2.60382 10.6641 2.72025 10.6641H18.1623C18.2787 10.6641 18.3903 10.7103 18.4727 10.7926C18.555 10.875 18.6013 10.9866 18.6013 11.1031V16.0031C18.6013 16.1195 18.555 16.2312 18.4727 16.3135C18.3903 16.3958 18.2787 16.4421 18.1623 16.4421Z" fill="#5E6166" stroke="#5E6166" stroke-width="0.2"/>
<path id="Path 35029" d="M6.8112 16.4426H5.0972C4.98077 16.4426 4.86911 16.3963 4.78678 16.314C4.70445 16.2317 4.6582 16.12 4.6582 16.0036V11.1036C4.6582 10.987 4.70451 10.8752 4.78693 10.7928C4.86935 10.7104 4.98114 10.6641 5.0977 10.6641C5.21427 10.6641 5.32605 10.7104 5.40848 10.7928C5.4909 10.8752 5.5372 10.987 5.5372 11.1036V15.5666H6.3722V12.7926C6.3722 12.676 6.41851 12.5642 6.50093 12.4818C6.58335 12.3994 6.69514 12.3531 6.8117 12.3531C6.92827 12.3531 7.04005 12.3994 7.12248 12.4818C7.2049 12.5642 7.2512 12.676 7.2512 12.7926V15.9926C7.25294 16.0513 7.24287 16.1098 7.22159 16.1646C7.20031 16.2193 7.16825 16.2693 7.12731 16.3114C7.08637 16.3536 7.03739 16.3871 6.98326 16.4099C6.92913 16.4328 6.87096 16.4446 6.8122 16.4446L6.8112 16.4426ZM14.4682 14.8616C14.3518 14.8616 14.2401 14.8153 14.1578 14.733C14.0755 14.6507 14.0292 14.539 14.0292 14.4226V12.6646C14.0292 12.548 14.0755 12.4362 14.1579 12.3538C14.2404 12.2714 14.3521 12.2251 14.4687 12.2251C14.5853 12.2251 14.6971 12.2714 14.7795 12.3538C14.8619 12.4362 14.9082 12.548 14.9082 12.6646V14.4216C14.9083 14.4794 14.897 14.5367 14.875 14.5901C14.8529 14.6435 14.8205 14.6921 14.7796 14.733C14.7387 14.7739 14.6902 14.8063 14.6367 14.8283C14.5833 14.8504 14.526 14.8617 14.4682 14.8616ZM16.2252 14.8616C16.1088 14.8616 15.9971 14.8153 15.9148 14.733C15.8325 14.6507 15.7862 14.539 15.7862 14.4226V12.6646C15.7862 12.6068 15.7976 12.5497 15.8197 12.4964C15.8417 12.443 15.8741 12.3946 15.9149 12.3538C15.9557 12.313 16.0042 12.2806 16.0575 12.2585C16.1108 12.2364 16.168 12.2251 16.2257 12.2251C16.2834 12.2251 16.3406 12.2364 16.3939 12.2585C16.4472 12.2806 16.4957 12.313 16.5365 12.3538C16.5773 12.3946 16.6097 12.443 16.6317 12.4964C16.6538 12.5497 16.6652 12.6068 16.6652 12.6646V14.4216C16.6653 14.4794 16.654 14.5367 16.632 14.5901C16.6099 14.6435 16.5775 14.6921 16.5366 14.733C16.4957 14.7739 16.4472 14.8063 16.3937 14.8283C16.3403 14.8504 16.283 14.8617 16.2252 14.8616Z" fill="#5E6166" stroke="#5E6166" stroke-width="0.2"/>
<path id="Path 35030" d="M16.4044 11.5426H0.962438C0.846007 11.5426 0.734346 11.4964 0.652018 11.414C0.569689 11.3317 0.523438 11.2201 0.523438 11.1036V6.20362C0.523702 6.08737 0.570071 5.97596 0.652371 5.89385C0.73467 5.81174 0.846181 5.76562 0.962438 5.76563H16.4044C16.5209 5.76563 16.6325 5.81188 16.7149 5.89421C16.7972 5.97653 16.8434 6.08819 16.8434 6.20462V11.1046C16.8432 11.2209 16.7968 11.3323 16.7145 11.4144C16.6322 11.4965 16.5207 11.5426 16.4044 11.5426ZM1.40444 10.6636H15.9644V6.64363H1.40244L1.40444 10.6636Z" fill="#5E6166" stroke="#5E6166" stroke-width="0.2"/>
<path id="Path 35031" d="M5.05339 11.5431H3.33939C3.22296 11.5431 3.1113 11.4969 3.02897 11.4145C2.94664 11.3322 2.90039 11.2206 2.90039 11.1041V7.52412C2.90039 7.40756 2.9467 7.29577 3.02912 7.21335C3.11154 7.13093 3.22333 7.08463 3.33989 7.08463C3.45645 7.08463 3.56824 7.13093 3.65066 7.21335C3.73309 7.29577 3.77939 7.40756 3.77939 7.52412V10.6471H4.61439V6.20512C4.61439 6.08856 4.6607 5.97677 4.74312 5.89435C4.82554 5.81193 4.93733 5.76563 5.05389 5.76562C5.17045 5.76563 5.28224 5.81193 5.36466 5.89435C5.44709 5.97677 5.49339 6.08856 5.49339 6.20512V11.1051C5.49326 11.1628 5.48178 11.2198 5.45959 11.273C5.43741 11.3263 5.40496 11.3746 5.3641 11.4153C5.32325 11.4559 5.27478 11.4881 5.22147 11.5101C5.16815 11.532 5.11104 11.5433 5.05339 11.5431ZM12.7104 9.96613C12.594 9.96613 12.4823 9.91987 12.4 9.83755C12.3176 9.75522 12.2714 9.64355 12.2714 9.52712V7.76612C12.2714 7.64956 12.3177 7.53777 12.4001 7.45535C12.4825 7.37293 12.5943 7.32662 12.7109 7.32662C12.8275 7.32662 12.9392 7.37293 13.0217 7.45535C13.1041 7.53777 13.1504 7.64956 13.1504 7.76612V9.52312C13.1509 9.58119 13.1399 9.63879 13.118 9.69258C13.0961 9.74637 13.0638 9.79529 13.0229 9.83649C12.982 9.87769 12.9333 9.91037 12.8796 9.93262C12.826 9.95487 12.7685 9.96626 12.7104 9.96613ZM14.4674 9.96613C14.351 9.96613 14.2393 9.91987 14.157 9.83755C14.0746 9.75522 14.0284 9.64355 14.0284 9.52712V7.76612C14.0284 7.64956 14.0747 7.53777 14.1571 7.45535C14.2395 7.37293 14.3513 7.32662 14.4679 7.32662C14.5845 7.32662 14.6962 7.37293 14.7787 7.45535C14.8611 7.53777 14.9074 7.64956 14.9074 7.76612V9.52312C14.9079 9.58119 14.8969 9.63879 14.875 9.69258C14.8531 9.74637 14.8208 9.79529 14.7799 9.83649C14.739 9.87769 14.6903 9.91037 14.6366 9.93262C14.583 9.95487 14.5255 9.96626 14.4674 9.96613Z" fill="#5E6166" stroke="#5E6166" stroke-width="0.2"/>
<path id="Path 35032" d="M19.0412 6.64537H3.59916C3.54142 6.64537 3.48426 6.63399 3.43093 6.61186C3.3776 6.58974 3.32916 6.55731 3.28838 6.51644C3.24761 6.47557 3.21529 6.42706 3.19329 6.37368C3.17128 6.3203 3.16003 6.26311 3.16016 6.20538V1.29837C3.16016 1.18194 3.20641 1.07028 3.28874 0.987955C3.37107 0.905627 3.48273 0.859375 3.59916 0.859375H19.0412C19.1577 0.859375 19.2695 0.90568 19.3519 0.988102C19.4344 1.07052 19.4807 1.18231 19.4807 1.29888C19.4807 1.41544 19.4344 1.52723 19.3519 1.60965C19.2695 1.69207 19.1577 1.73837 19.0412 1.73837H4.04116V5.76637H18.6012V4.62437C18.6012 4.50781 18.6475 4.39602 18.7299 4.3136C18.8123 4.23118 18.9241 4.18488 19.0407 4.18488C19.1572 4.18488 19.269 4.23118 19.3514 4.3136C19.4339 4.39602 19.4802 4.50781 19.4802 4.62437V6.20538C19.4803 6.26311 19.469 6.3203 19.447 6.37368C19.425 6.42706 19.3927 6.47557 19.3519 6.51644C19.3112 6.55731 19.2627 6.58974 19.2094 6.61186C19.1561 6.63399 19.0989 6.64537 19.0412 6.64537Z" fill="#5E6166" stroke="#5E6166" stroke-width="0.2"/>
<path id="Path 35033" d="M5.97416 6.64537C5.85773 6.64537 5.74606 6.59912 5.66374 6.51679C5.58141 6.43447 5.53516 6.3228 5.53516 6.20638V1.29837C5.53516 1.18194 5.58141 1.07028 5.66374 0.987955C5.74606 0.905627 5.85773 0.859375 5.97416 0.859375H7.68716C7.80359 0.859375 7.91525 0.905627 7.99758 0.987955C8.07991 1.07028 8.12616 1.18194 8.12616 1.29837V5.06338C8.12616 5.17994 8.07985 5.29173 7.99743 5.37415C7.91501 5.45657 7.80322 5.50287 7.68666 5.50287C7.57009 5.50287 7.45831 5.45657 7.37588 5.37415C7.29346 5.29173 7.24716 5.17994 7.24716 5.06338V1.73837H6.41216V6.20638C6.41216 6.32263 6.36604 6.43414 6.28393 6.51644C6.20182 6.59874 6.09041 6.64511 5.97416 6.64537ZM15.3442 5.06437C15.2277 5.06437 15.1161 5.01812 15.0337 4.93579C14.9514 4.85347 14.9052 4.74181 14.9052 4.62538V2.86737C14.9052 2.75081 14.9515 2.63902 15.0339 2.5566C15.1163 2.47418 15.2281 2.42788 15.3447 2.42788C15.4612 2.42788 15.573 2.47418 15.6554 2.5566C15.7379 2.63902 15.7842 2.75081 15.7842 2.86737V4.62437C15.7842 4.7408 15.7379 4.85247 15.6556 4.9348C15.5732 5.01712 15.4616 5.06338 15.3452 5.06338L15.3442 5.06437ZM17.1012 5.06437C16.9847 5.06437 16.8731 5.01812 16.7907 4.93579C16.7084 4.85347 16.6622 4.74181 16.6622 4.62538V2.86737C16.6622 2.75081 16.7085 2.63902 16.7909 2.5566C16.8733 2.47418 16.9851 2.42788 17.1017 2.42788C17.2182 2.42788 17.33 2.47418 17.4124 2.5566C17.4949 2.63902 17.5412 2.75081 17.5412 2.86737V4.62437C17.5412 4.68202 17.5298 4.73911 17.5077 4.79237C17.4857 4.84564 17.4533 4.89403 17.4126 4.9348C17.3718 4.97556 17.3234 5.0079 17.2702 5.02996C17.2169 5.05202 17.1598 5.06338 17.1022 5.06338L17.1012 5.06437Z" fill="#5E6166" stroke="#5E6166" stroke-width="0.2"/>
</g>
</svg>
