<svg width="24" height="25" viewBox="0 0 24 25" fill="none" xmlns="http://www.w3.org/2000/svg">
<g id="Component 44">
<path id="wallet" d="M14.9788 15.0524C14.3423 15.0524 13.7319 14.7996 13.2818 14.3495C12.8317 13.8994 12.5788 13.289 12.5788 12.6524C12.5788 12.0159 12.8317 11.4055 13.2818 10.9554C13.7319 10.5053 14.3423 10.2524 14.9788 10.2524H19.5408V15.0524H14.9788ZM14.9008 12.0734C14.7861 12.0734 14.674 12.1075 14.5786 12.1712C14.4832 12.2349 14.4089 12.3255 14.365 12.4315C14.3211 12.5375 14.3096 12.6541 14.332 12.7666C14.3544 12.8791 14.4096 12.9824 14.4907 13.0636C14.5718 13.1447 14.6752 13.1999 14.7877 13.2223C14.9002 13.2447 15.0168 13.2332 15.1228 13.1893C15.2288 13.1454 15.3193 13.0711 15.3831 12.9757C15.4468 12.8803 15.4808 12.7682 15.4808 12.6534C15.4803 12.4999 15.419 12.3528 15.3103 12.2443C15.2016 12.1358 15.0544 12.0747 14.9008 12.0744V12.0734ZM18.0668 6.27344H5.87883C5.7293 6.27965 5.58796 6.34342 5.48436 6.45142C5.38075 6.55942 5.32291 6.70328 5.32291 6.85294C5.32291 7.0026 5.38075 7.14646 5.48436 7.25446C5.58796 7.36246 5.7293 7.42623 5.87883 7.43244H18.0688C18.46 7.43323 18.8349 7.5892 19.1113 7.8661C19.3876 8.14301 19.5428 8.51823 19.5428 8.90944V9.09644H14.9788C14.5116 9.09644 14.0489 9.18847 13.6172 9.36728C13.1856 9.54608 12.7933 9.80816 12.4629 10.1386C12.1326 10.4689 11.8705 10.8612 11.6917 11.2929C11.5129 11.7245 11.4208 12.1872 11.4208 12.6544C11.4208 13.1217 11.5129 13.5843 11.6917 14.016C11.8705 14.4477 12.1326 14.8399 12.4629 15.1703C12.7933 15.5007 13.1856 15.7628 13.6172 15.9416C14.0489 16.1204 14.5116 16.2124 14.9788 16.2124H19.5408V16.4034C19.5406 16.7944 19.3852 17.1692 19.1089 17.4458C18.8325 17.7223 18.4578 17.8779 18.0668 17.8784H5.93383C5.54272 17.8782 5.1677 17.7227 4.89114 17.4461C4.61458 17.1696 4.45909 16.7946 4.45883 16.4034V8.85144C4.45883 8.69761 4.39772 8.55009 4.28895 8.44132C4.18018 8.33255 4.03265 8.27144 3.87883 8.27144C3.725 8.27144 3.57748 8.33255 3.46871 8.44132C3.35994 8.55009 3.29883 8.69761 3.29883 8.85144V16.4034C3.29936 17.1021 3.57714 17.772 4.07119 18.2661C4.56523 18.7601 5.23515 19.0379 5.93383 19.0384H18.0668C18.7656 19.0379 19.4356 18.7602 19.9298 18.2661C20.424 17.7721 20.702 17.1022 20.7028 16.4034V8.90944C20.7023 8.21049 20.4244 7.54032 19.9302 7.04609C19.4359 6.55186 18.7658 6.27397 18.0668 6.27344Z" fill="#5E6166" stroke="#5E6166" stroke-width="0.3"/>
</g>
</svg>
