<svg width="20" height="21" viewBox="0 0 20 21" fill="none" xmlns="http://www.w3.org/2000/svg">
<g id="offers">
<path id="Path 35039" d="M15.847 4.30034L16.241 5.48134C16.3557 5.85514 16.5927 6.17951 16.914 6.40234L17.914 7.07134C18.2482 7.29568 18.4953 7.62784 18.6141 8.01238C18.7329 8.39692 18.7163 8.81058 18.567 9.18434L18.164 10.1373C17.9928 10.56 17.9928 11.0327 18.164 11.4553L18.558 12.3883C18.7071 12.7547 18.7284 13.1606 18.6185 13.5405C18.5085 13.9205 18.2737 14.2523 17.952 14.4823L17.067 15.1163C16.7425 15.3469 16.5065 15.6814 16.398 16.0643L16.079 17.1823C15.968 17.5747 15.7238 17.9162 15.3884 18.1482C15.053 18.3801 14.6473 18.488 14.241 18.4533L13.285 18.3743C12.8325 18.337 12.3834 18.4785 12.034 18.7683L11.113 19.5123C10.7991 19.7683 10.4065 19.908 10.0015 19.908C9.59649 19.908 9.20389 19.7683 8.88999 19.5123L8.10299 18.8673C7.78747 18.61 7.39213 18.4707 6.98499 18.4733H5.60699C5.20939 18.4744 4.82326 18.3401 4.51211 18.0926C4.20096 17.8451 3.98332 17.499 3.89499 17.1113L3.64299 16.0413C3.54469 15.6093 3.28589 15.2308 2.91899 14.9823L2.07299 14.3603C1.75265 14.1425 1.51359 13.8246 1.39325 13.4563C1.27292 13.0881 1.2781 12.6903 1.40799 12.3253L1.80199 11.2473C1.94761 10.8551 1.94761 10.4236 1.80199 10.0313L1.44799 9.08734C1.30626 8.71212 1.29733 8.29967 1.4227 7.91866C1.54806 7.53766 1.80015 7.2111 2.13699 6.99334L3.06999 6.39334C3.42998 6.161 3.69303 5.80552 3.80999 5.39334L4.08499 4.40134C4.19536 4.0064 4.44025 3.66244 4.77732 3.4289C5.11438 3.19536 5.52246 3.08693 5.93099 3.12234L6.81199 3.19734C7.26475 3.23149 7.71322 3.08964 8.06399 2.80134L8.90199 2.12434C9.21684 1.86709 9.61092 1.72656 10.0175 1.72656C10.4241 1.72656 10.8182 1.86709 11.133 2.12434L11.864 2.73734C12.2158 3.02855 12.6679 3.17003 13.123 3.13134L14.048 3.06434C14.4424 3.03886 14.8339 3.14695 15.1594 3.37118C15.4848 3.59542 15.7253 3.92273 15.842 4.30034H15.847Z" stroke="#5E6166" stroke-width="1.5" stroke-miterlimit="10"/>
<path id="Path 35040" d="M12.761 8.02138L7.08398 13.6964M8.39499 9.63838C8.608 9.63838 8.81622 9.57521 8.99333 9.45687C9.17045 9.33853 9.30849 9.17032 9.39 8.97353C9.47152 8.77673 9.49285 8.56018 9.45129 8.35126C9.40973 8.14235 9.30716 7.95044 9.15654 7.79982C9.00592 7.6492 8.81401 7.54663 8.6051 7.50507C8.39618 7.46351 8.17963 7.48484 7.98284 7.56636C7.78604 7.64787 7.61783 7.78591 7.49949 7.96303C7.38115 8.14014 7.31799 8.34836 7.31799 8.56137C7.31799 8.84701 7.43145 9.12095 7.63343 9.32293C7.83541 9.52491 8.10935 9.63838 8.39499 9.63838V9.63838ZM11.684 14.1614C11.897 14.1614 12.1052 14.0982 12.2823 13.9799C12.4594 13.8615 12.5975 13.6933 12.679 13.4965C12.7605 13.2997 12.7818 13.0832 12.7403 12.8743C12.6987 12.6653 12.5962 12.4734 12.4455 12.3228C12.2949 12.1722 12.103 12.0696 11.8941 12.0281C11.6852 11.9865 11.4686 12.0078 11.2718 12.0894C11.075 12.1709 10.9068 12.3089 10.7885 12.486C10.6701 12.6631 10.607 12.8714 10.607 13.0844C10.607 13.37 10.7205 13.644 10.9224 13.8459C11.1244 14.0479 11.3983 14.1614 11.684 14.1614V14.1614Z" stroke="#5E6166" stroke-linecap="round" stroke-linejoin="round"/>
</g>
</svg>
