<svg width="24" height="24" viewBox="0 0 24 24" fill="none" xmlns="http://www.w3.org/2000/svg">
<g id="Frame 625761">
<path id="Vector" d="M11.0848 8.924C10.9326 8.83963 10.761 8.79644 10.587 8.79871C10.4129 8.80098 10.2425 8.84863 10.0926 8.93694C9.94259 9.02526 9.81827 9.15118 9.73188 9.30226C9.6455 9.45335 9.60004 9.62436 9.6 9.7984V14.2016C9.60004 14.3756 9.6455 14.5467 9.73188 14.6977C9.81827 14.8488 9.94259 14.9747 10.0926 15.0631C10.2425 15.1514 10.4129 15.199 10.587 15.2013C10.761 15.2036 10.9326 15.1604 11.0848 15.076L15.6904 12.5248C15.7841 12.4729 15.8622 12.3968 15.9165 12.3045C15.9709 12.2123 15.9996 12.1071 15.9996 12C15.9996 11.8929 15.9709 11.7877 15.9165 11.6955C15.8622 11.6032 15.7841 11.5271 15.6904 11.4752L11.0848 8.924ZM12 4C7.5816 4 4 7.5816 4 12C4 16.4184 7.5816 20 12 20C16.4184 20 20 16.4184 20 12C20 7.5816 16.4184 4 12 4ZM5.2 12C5.2 10.1965 5.91643 8.46692 7.19167 7.19167C8.46692 5.91643 10.1965 5.2 12 5.2C13.8035 5.2 15.5331 5.91643 16.8083 7.19167C18.0836 8.46692 18.8 10.1965 18.8 12C18.8 13.8035 18.0836 15.5331 16.8083 16.8083C15.5331 18.0836 13.8035 18.8 12 18.8C10.1965 18.8 8.46692 18.0836 7.19167 16.8083C5.91643 15.5331 5.2 13.8035 5.2 12Z" fill="#3D3D3D"/>
</g>
</svg>
