<svg width="22" height="21" viewBox="0 0 22 21" fill="none" xmlns="http://www.w3.org/2000/svg">
<g id="Group">
<g id="Group_2">
<g id="Group_3">
<path id="Vector" d="M1.00073 1.51172H2.81012C3.85766 1.51172 4.71474 2.17833 5.00043 3.22587L6.80981 10.5587C7.09551 11.6062 7.95258 12.2728 9.00012 12.2728H17.19C18.1423 12.2728 18.9994 11.7014 19.2851 10.7491L20.904 6.0828C21.1897 5.41618 20.8088 4.65434 20.1421 4.36864C19.9517 4.27341 19.8564 4.27341 19.666 4.27341H5.47658" stroke="#5E6166" stroke-width="1.7" stroke-linecap="round" stroke-linejoin="round"/>
</g>
</g>
<path id="Vector_2" d="M8.14319 19.7009C9.35287 19.7009 10.3335 18.7203 10.3335 17.5106C10.3335 16.3009 9.35287 15.3203 8.14319 15.3203C6.93352 15.3203 5.95288 16.3009 5.95288 17.5106C5.95288 18.7203 6.93352 19.7009 8.14319 19.7009Z" stroke="#5E6166" stroke-width="1.7" stroke-linecap="round" stroke-linejoin="round"/>
<path id="Vector_3" d="M16.9995 19.7009C18.2092 19.7009 19.1898 18.7203 19.1898 17.5106C19.1898 16.3009 18.2092 15.3203 16.9995 15.3203C15.7898 15.3203 14.8092 16.3009 14.8092 17.5106C14.8092 18.7203 15.7898 19.7009 16.9995 19.7009Z" stroke="#5E6166" stroke-width="1.7" stroke-linecap="round" stroke-linejoin="round"/>
</g>
</svg>
