<svg width="9" height="12" viewBox="0 0 9 12" fill="none" xmlns="http://www.w3.org/2000/svg">
<g id="rupee (3) 1" clip-path="url(#clip0_3283_11551)">
<path id="rupee (3)" d="M8.19702 1.22288H5.75703C6.21349 1.68662 6.50638 2.2669 6.59702 2.88709H8.19702V3.92832H6.56501C6.41099 4.64024 5.99352 5.28096 5.38374 5.74127C4.77396 6.20157 4.00963 6.45298 3.22102 6.45263H1.97622L5.83862 11.1095L4.93943 11.7398L0.480225 6.36426V5.41139H3.22102C3.70856 5.41098 4.18313 5.26672 4.57505 4.9998C4.96697 4.73288 5.25562 4.35735 5.39863 3.92832H0.197021V2.88709H5.45142C5.34331 2.41649 5.063 1.99431 4.65732 1.69113C4.25164 1.38794 3.74519 1.22213 3.22263 1.22141H0.197021V0.181641H8.19702V1.22288Z" fill="#757575" stroke="#757575" stroke-width="0.449814"/>
</g>
<defs>
<clipPath id="clip0_3283_11551">
<rect width="8.4" height="12" fill="white"/>
</clipPath>
</defs>
</svg>
