<svg width="19" height="18" viewBox="0 0 19 18" fill="none" xmlns="http://www.w3.org/2000/svg">
<g id="share (1)">
<g id="Group 722">
<g id="Group 721">
<path id="Path 951" d="M18.3392 5.67807L13.7612 1.12307C13.6646 1.02682 13.5417 0.961349 13.4079 0.934938C13.2741 0.908527 13.1354 0.922356 13.0095 0.97468C12.8836 1.027 12.7759 1.11547 12.7003 1.22892C12.6246 1.34236 12.5842 1.47569 12.5842 1.61207V3.68007C11.2739 3.69711 10.006 4.14637 8.97723 4.95807C8.07511 5.70721 7.37818 6.67333 6.9519 7.76572C6.52562 8.85811 6.38396 10.0409 6.54023 11.2031V11.2311L6.63223 11.7601C6.65619 11.8989 6.72208 12.0271 6.82104 12.1274C6.92 12.2276 7.04728 12.2952 7.18579 12.321C7.32429 12.3468 7.46739 12.3296 7.59582 12.2717C7.72426 12.2138 7.83188 12.118 7.90423 11.9971L8.18023 11.5371C9.68823 9.02907 11.5512 8.62607 12.5802 8.62207V10.7671C12.58 10.9039 12.6204 11.0377 12.6964 11.1515C12.7724 11.2653 12.8805 11.3539 13.007 11.4061C13.1335 11.4583 13.2726 11.4717 13.4067 11.4446C13.5409 11.4176 13.6639 11.3512 13.7602 11.2541L18.3382 6.65407C18.4024 6.59006 18.4533 6.51403 18.4881 6.43034C18.5229 6.34664 18.5408 6.25691 18.5409 6.16628C18.541 6.07564 18.5233 5.98587 18.4886 5.90211C18.454 5.81834 18.4033 5.74221 18.3392 5.67807ZM13.9652 9.09607V7.98507C13.9652 7.82117 13.9068 7.66263 13.8005 7.53785C13.6943 7.41307 13.547 7.3302 13.3852 7.30407C12.3572 7.1681 11.3115 7.30371 10.3522 7.6974C9.39288 8.0911 8.55337 8.72915 7.91723 9.54807C8.09253 8.16191 8.79256 6.8957 9.87323 6.01007C9.88655 5.99949 9.89925 5.98814 9.91124 5.97607C10.869 5.29003 12.036 4.95938 13.2112 5.04107H13.2802C13.4632 5.04107 13.6387 4.96837 13.7681 4.83897C13.8975 4.70957 13.9702 4.53407 13.9702 4.35107V3.27307L16.8822 6.17307L13.9652 9.09607Z" fill="#5E6166"/>
</g>
</g>
<g id="Group 724">
<g id="Group 723">
<path id="Path 952" d="M15.8273 12.7896C15.6326 12.8025 15.4508 12.8918 15.3215 13.0381C15.1923 13.1844 15.1261 13.3758 15.1373 13.5706V15.7836H1.79334V4.32763H5.93434C6.1248 4.30397 6.30006 4.21153 6.42713 4.0677C6.55421 3.92386 6.62434 3.73855 6.62434 3.54662C6.62434 3.3547 6.55421 3.16938 6.42713 3.02555C6.30006 2.88172 6.1248 2.78928 5.93434 2.76562H1.10334C0.908572 2.77849 0.726777 2.86779 0.597541 3.01407C0.468306 3.16035 0.402099 3.35176 0.413338 3.54662V16.5606C0.402099 16.7555 0.468306 16.9469 0.597541 17.0932C0.726777 17.2395 0.908572 17.3288 1.10334 17.3416H15.8273C16.0221 17.3288 16.2039 17.2395 16.3331 17.0932C16.4624 16.9469 16.5286 16.7555 16.5173 16.5606V13.5706C16.5286 13.3758 16.4624 13.1844 16.3331 13.0381C16.2039 12.8918 16.0221 12.8025 15.8273 12.7896Z" fill="#5E6166"/>
</g>
</g>
</g>
</svg>
