<svg width="14" height="19" viewBox="0 0 14 19" fill="none" xmlns="http://www.w3.org/2000/svg">
<g id="ebook">
<g id="Group 718">
<g id="Group 717">
<path id="Path 944" d="M8.4057 12.3953C8.4057 12.2097 8.33196 12.0316 8.20068 11.9004C8.06941 11.7691 7.89136 11.6953 7.7057 11.6953H3.9207C3.82877 11.6953 3.73776 11.7134 3.65283 11.7486C3.5679 11.7838 3.49074 11.8354 3.42574 11.9004C3.36073 11.9654 3.30917 12.0425 3.27399 12.1274C3.23881 12.2124 3.2207 12.3034 3.2207 12.3953C3.2207 12.4873 3.23881 12.5783 3.27399 12.6632C3.30917 12.7481 3.36073 12.8253 3.42574 12.8903C3.49074 12.9553 3.5679 13.0069 3.65283 13.0421C3.73776 13.0772 3.82877 13.0953 3.9207 13.0953H7.7047C7.79671 13.0955 7.88784 13.0774 7.97289 13.0423C8.05793 13.0072 8.13521 12.9557 8.20032 12.8907C8.26542 12.8256 8.31708 12.7484 8.35233 12.6634C8.38757 12.5784 8.4057 12.4873 8.4057 12.3953Z" fill="#5E6166"/>
<path id="Ellipse 86" d="M7.00178 16.1442C7.38893 16.1442 7.70278 15.8303 7.70278 15.4432C7.70278 15.056 7.38893 14.7422 7.00178 14.7422C6.61463 14.7422 6.30078 15.056 6.30078 15.4432C6.30078 15.8303 6.61463 16.1442 7.00178 16.1442Z" fill="#5E6166"/>
<path id="Path 945" d="M12.8748 13.0245C13.0604 13.0245 13.2385 12.9508 13.3698 12.8195C13.501 12.6882 13.5748 12.5102 13.5748 12.3245V3.4875C13.5748 2.74489 13.2798 2.0327 12.7547 1.5076C12.2296 0.982499 11.5174 0.6875 10.7748 0.6875H3.22578C2.48318 0.6875 1.77098 0.982499 1.24588 1.5076C0.720778 2.0327 0.425781 2.74489 0.425781 3.4875V15.8235C0.425781 16.5661 0.720778 17.2783 1.24588 17.8034C1.77098 18.3285 2.48318 18.6235 3.22578 18.6235H10.7798C11.5224 18.6235 12.2346 18.3285 12.7597 17.8034C13.2848 17.2783 13.5798 16.5661 13.5798 15.8235C13.5798 15.6378 13.506 15.4598 13.3748 15.3285C13.2435 15.1973 13.0654 15.1235 12.8798 15.1235C12.6941 15.1235 12.5161 15.1973 12.3848 15.3285C12.2535 15.4598 12.1798 15.6378 12.1798 15.8235C12.1798 16.1948 12.0323 16.5509 11.7697 16.8134C11.5072 17.076 11.1511 17.2235 10.7798 17.2235H3.22578C2.85448 17.2235 2.49838 17.076 2.23583 16.8134C1.97328 16.5509 1.82578 16.1948 1.82578 15.8235V3.4875C1.82578 3.1162 1.97328 2.7601 2.23583 2.49755C2.49838 2.235 2.85448 2.0875 3.22578 2.0875H10.7798C11.1511 2.0875 11.5072 2.235 11.7697 2.49755C12.0323 2.7601 12.1798 3.1162 12.1798 3.4875V12.3205C12.1787 12.506 12.2513 12.6843 12.3816 12.8163C12.5119 12.9483 12.6893 13.0232 12.8748 13.0245Z" fill="#5E6166"/>
<path id="Path 946" d="M10.7715 9.66093C10.7715 9.47528 10.6978 9.29723 10.5665 9.16595C10.4352 9.03468 10.2572 8.96094 10.0715 8.96094H3.92851C3.74286 8.96094 3.56482 9.03468 3.43355 9.16595C3.30227 9.29723 3.22852 9.47528 3.22852 9.66093C3.22852 9.84659 3.30227 10.0246 3.43355 10.1559C3.56482 10.2872 3.74286 10.3609 3.92851 10.3609H10.0745C10.2596 10.3601 10.4369 10.286 10.5676 10.1548C10.6982 10.0237 10.7715 9.84607 10.7715 9.66093Z" fill="#5E6166"/>
<path id="Path 947" d="M10.0725 3.49219H3.92851C3.74286 3.49219 3.56482 3.56594 3.43355 3.69721C3.30227 3.82849 3.22852 4.00653 3.22852 4.19218C3.22852 4.37784 3.30227 4.55589 3.43355 4.68716C3.56482 4.81844 3.74286 4.89219 3.92851 4.89219H10.0745C10.2602 4.89219 10.4382 4.81844 10.5695 4.68716C10.7008 4.55589 10.7745 4.37784 10.7745 4.19218C10.7745 4.00653 10.7008 3.82849 10.5695 3.69721C10.4382 3.56594 10.2602 3.49219 10.0745 3.49219H10.0725Z" fill="#5E6166"/>
<path id="Path 948" d="M10.0725 6.22656H3.92851C3.74286 6.22656 3.56482 6.30032 3.43355 6.43159C3.30227 6.56287 3.22852 6.74092 3.22852 6.92657C3.22852 7.11223 3.30227 7.29026 3.43355 7.42154C3.56482 7.55281 3.74286 7.62657 3.92851 7.62657H10.0745C10.2602 7.62657 10.4382 7.55281 10.5695 7.42154C10.7008 7.29026 10.7745 7.11223 10.7745 6.92657C10.7745 6.74092 10.7008 6.56287 10.5695 6.43159C10.4382 6.30032 10.2602 6.22656 10.0745 6.22656H10.0725Z" fill="#5E6166"/>
</g>
</g>
</g>
</svg>
