<svg width="24" height="25" viewBox="0 0 24 25" fill="none" xmlns="http://www.w3.org/2000/svg">
<g id="wallet">
<g id="notification">
<path id="notification_2" fill-rule="evenodd" clip-rule="evenodd" d="M6.26144 9.37605C6.26144 8.07119 6.77979 6.81977 7.70247 5.89709C8.62515 4.97441 9.87657 4.45605 11.1814 4.45605H12.8214C14.1263 4.45605 15.3777 4.97441 16.3004 5.89709C17.2231 6.81977 17.7414 8.07119 17.7414 9.37605V15.5961L19.1414 16.9961C19.2562 17.1107 19.3343 17.2569 19.366 17.416C19.3977 17.5751 19.3814 17.74 19.3193 17.8899C19.2573 18.0398 19.1521 18.1679 19.0172 18.258C18.8823 18.3481 18.7237 18.3961 18.5614 18.3961H5.44144C5.27921 18.3961 5.1206 18.3481 4.98569 18.258C4.85078 18.1679 4.74562 18.0398 4.68353 17.8899C4.62144 17.74 4.6052 17.5751 4.63687 17.416C4.66854 17.2569 4.74669 17.1107 4.86144 16.9961L6.26144 15.5961V15.1161C6.26144 14.8986 6.34783 14.69 6.50161 14.5362C6.65539 14.3824 6.86396 14.2961 7.08144 14.2961C7.29892 14.2961 7.50749 14.3824 7.66127 14.5362C7.81505 14.69 7.90144 14.8986 7.90144 15.1161V15.9361C7.90148 16.0438 7.88031 16.1504 7.83913 16.2499C7.79795 16.3494 7.73757 16.4399 7.66144 16.5161L7.42144 16.7561H16.5814L16.3414 16.5161C16.2653 16.4399 16.2049 16.3494 16.1637 16.2499C16.1226 16.1504 16.1014 16.0438 16.1014 15.9361V9.37605C16.1014 8.94532 16.0166 8.5188 15.8518 8.12085C15.6869 7.72291 15.4453 7.36132 15.1407 7.05674C14.8362 6.75217 14.4746 6.51057 14.0766 6.34573C13.6787 6.18089 13.2522 6.09605 12.8214 6.09605H11.1814C10.3115 6.09605 9.47725 6.44163 8.86213 7.05674C8.24701 7.67186 7.90144 8.50614 7.90144 9.37605V10.1961C7.90144 10.4135 7.81505 10.6221 7.66127 10.7759C7.50749 10.9297 7.29892 11.0161 7.08144 11.0161C6.86396 11.0161 6.65539 10.9297 6.50161 10.7759C6.34783 10.6221 6.26144 10.4135 6.26144 10.1961V9.37605ZM7.90144 12.6561C7.90144 12.8182 7.85335 12.9768 7.76324 13.1116C7.67314 13.2465 7.54508 13.3516 7.39524 13.4136C7.2454 13.4757 7.08053 13.4919 6.92146 13.4603C6.7624 13.4287 6.61629 13.3506 6.50161 13.2359C6.38693 13.1212 6.30884 12.9751 6.2772 12.816C6.24556 12.657 6.26179 12.4921 6.32386 12.3423C6.38592 12.1924 6.49102 12.0644 6.62587 11.9742C6.76072 11.8841 6.91926 11.8361 7.08144 11.8361C7.29892 11.8361 7.50749 11.9224 7.66127 12.0762C7.81505 12.23 7.90144 12.4386 7.90144 12.6561ZM12.0014 20.8561C12.1636 20.8561 12.3222 20.808 12.457 20.7179C12.5919 20.6278 12.697 20.4997 12.759 20.3499C12.8211 20.2 12.8373 20.0351 12.8057 19.8761C12.774 19.717 12.6959 19.5709 12.5813 19.4562C12.4666 19.3415 12.3205 19.2635 12.1614 19.2318C12.0023 19.2002 11.8375 19.2164 11.6876 19.2785C11.5378 19.3405 11.4097 19.4456 11.3196 19.5805C11.2295 19.7153 11.1814 19.8739 11.1814 20.0361C11.1814 20.2535 11.2678 20.4621 11.4216 20.6159C11.5754 20.7697 11.784 20.8561 12.0014 20.8561Z" fill="#5E6166"/>
</g>
</g>
</svg>
