<svg width="25" height="24" viewBox="0 0 25 24" fill="none" xmlns="http://www.w3.org/2000/svg">
<g id="Frame 1000001718">
<path id="Vector" fill-rule="evenodd" clip-rule="evenodd" d="M18.8978 5.63178C17.2037 3.9355 14.9505 3.00086 12.5498 3C7.60301 3 3.57703 7.02556 3.5753 11.9737C3.57444 13.5555 3.98797 15.0995 4.77329 16.4601L3.5 21.1109L8.25751 19.863C9.56823 20.5782 11.0442 20.9547 12.546 20.9552H12.5498C17.4958 20.9552 21.5223 16.9291 21.524 11.981C21.5248 9.58291 20.5924 7.3285 18.8978 5.63221V5.63178ZM12.5498 19.4396H12.5468C11.2086 19.4392 9.89571 19.0794 8.75024 18.4L8.47784 18.2382L5.65457 18.9787L6.40804 16.226L6.23075 15.9437C5.48416 14.7561 5.08957 13.3834 5.09043 11.9741C5.09215 7.86165 8.43824 4.51555 12.5529 4.51555C14.5452 4.51641 16.4179 5.29313 17.8263 6.70326C19.2347 8.11296 20.0097 9.9874 20.0089 11.9802C20.0071 16.0931 16.6611 19.4392 12.5498 19.4392V19.4396ZM16.6412 13.8533C16.417 13.741 15.3146 13.1988 15.1089 13.1239C14.9032 13.049 14.7539 13.0116 14.6046 13.2362C14.4553 13.4609 14.0254 13.966 13.8946 14.1153C13.7638 14.2651 13.6329 14.2836 13.4087 14.1713C13.1846 14.059 12.4621 13.8223 11.6053 13.0585C10.9388 12.4638 10.4887 11.7297 10.3579 11.5051C10.2271 11.2805 10.3441 11.1591 10.456 11.0477C10.5566 10.947 10.6802 10.7856 10.7925 10.6548C10.9048 10.524 10.9418 10.4302 11.0167 10.2808C11.0916 10.1311 11.0541 10.0003 10.9982 9.88797C10.9422 9.77567 10.4939 8.6719 10.3067 8.2231C10.1246 7.78592 9.93962 7.8453 9.80234 7.83799C9.67152 7.83153 9.52222 7.83024 9.37247 7.83024C9.22272 7.83024 8.98 7.88618 8.77432 8.1108C8.56865 8.3354 7.98943 8.87803 7.98943 9.98134C7.98943 11.0847 8.79285 12.1514 8.90515 12.3012C9.01745 12.4509 10.4865 14.7156 12.7357 15.6873C13.2707 15.9183 13.6885 16.0565 14.0142 16.1598C14.5513 16.3306 15.0401 16.3065 15.4265 16.2488C15.8573 16.1843 16.7531 15.7062 16.9399 15.1825C17.1266 14.6588 17.1266 14.2096 17.0707 14.1162C17.0148 14.0228 16.865 13.9664 16.6408 13.8542L16.6412 13.8533Z" fill="#414347"/>
</g>
</svg>
