<svg xmlns="http://www.w3.org/2000/svg" width="40" height="43" viewBox="0 0 40 43" fill="none">
  <path d="M20 42.6563C14.1941 42.6864 8.6067 40.4443 4.432 36.4093C2.6002 34.6446 1.09918 32.5661 0 30.2723H1.538C2.53938 32.1913 3.84533 33.9353 5.405 35.4363C9.32218 39.2124 14.5592 41.3093 20 41.2803C25.4408 41.3093 30.6778 39.2124 34.595 35.4363C36.1547 33.9354 37.4607 32.1914 38.462 30.2723H40C38.9009 32.5665 37.3999 34.6453 35.568 36.4103C31.3931 40.445 25.8058 42.6866 20 42.6563ZM1.538 12.3853H0C1.09906 10.0911 2.60009 8.01231 4.432 6.2473C8.6067 2.21228 14.1941 -0.0297855 20 0.000298888C25.8059 -0.0297855 31.3933 2.21228 35.568 6.2473C37.3996 8.01146 38.9006 10.0892 40 12.3823H38.463C37.4612 10.4638 36.1549 8.72054 34.595 7.2203C30.6778 3.44421 25.4408 1.34724 20 1.3763C14.5592 1.34724 9.32218 3.44421 5.405 7.2203C3.84536 8.7213 2.53941 10.4653 1.538 12.3843V12.3853Z" fill="#1B2124"/>
  <path d="M19.9997 39.9029C17.4286 39.9089 14.8809 39.4129 12.4997 38.4429C10.2235 37.5186 8.14509 36.1673 6.37675 34.4619C4.62743 32.7847 3.22485 30.78 2.24875 28.5619C1.11223 25.9671 0.603253 23.1411 0.763097 20.3129C0.922941 17.4847 1.7471 14.734 3.16875 12.2839C4.73896 9.5896 6.94786 7.323 9.60075 5.68386V5.85986C10.0097 5.91986 10.4007 5.99286 10.7497 6.07586C11.0842 6.14777 11.3894 6.31848 11.6257 6.56586C11.7355 6.69247 11.8103 6.8455 11.8427 7.00986C11.8988 7.2341 11.9366 7.46251 11.9557 7.69286C11.9777 7.94186 11.9937 8.20986 12.0017 8.49286C12.0097 8.77586 12.0127 9.05186 12.0127 9.32386V15.0809C12.0127 15.5339 12.0127 15.9809 12.0017 16.4129V16.6129C11.9947 16.9719 11.9887 17.3039 11.9817 17.6129C11.9747 17.9749 11.9707 18.2659 11.9707 18.4779C11.9707 18.7149 11.9627 18.9669 11.9477 19.2289C11.9327 19.4909 11.9147 19.7289 11.8907 19.9579C11.8725 20.1647 11.8391 20.3699 11.7907 20.5719C11.7606 20.7201 11.6985 20.8601 11.6087 20.9819C11.3921 21.2368 11.1084 21.4259 10.7897 21.5279C10.4342 21.6509 10.0684 21.7422 9.69675 21.8009V22.0289H14.6167C14.7198 22.0521 14.8203 22.0856 14.9167 22.1289C15.1041 22.2139 15.2793 22.3235 15.4377 22.4549C15.5693 22.5635 15.683 22.692 15.7747 22.8359C15.8607 22.9779 15.9197 23.0809 15.9597 23.1619C16.0537 23.3509 16.1317 23.5139 16.1987 23.6619C16.2657 23.8099 16.3367 23.9789 16.4057 24.1619C16.4747 24.3449 16.5497 24.5419 16.6227 24.7269C16.6957 24.9119 16.7787 25.1269 16.8947 25.4439C17.2421 26.3565 17.5897 27.2729 17.9377 28.1929L18.0277 28.4309C18.3471 29.2762 18.6757 30.1455 19.0137 31.0389L19.8077 33.1389L20.1647 34.0869C20.6057 35.2559 21.0207 36.3499 21.4357 37.4319H21.6967L22.6527 35.3029C22.8767 34.6829 23.1187 34.0099 23.4137 33.1839C23.6517 32.5179 23.9077 31.7889 24.1957 30.9569C24.4437 30.2399 24.7077 29.4909 24.9777 28.7289C25.2567 27.9469 25.4987 27.2609 25.7167 26.6289C26.0287 27.4609 26.3277 28.2909 26.6077 29.0939C26.8877 29.8969 27.1797 30.7319 27.5077 31.6689C27.8167 32.5469 28.1457 33.4759 28.4847 34.4279C28.8157 35.3589 29.1847 36.3679 29.5847 37.4279H29.6097C26.6682 39.0547 23.3612 39.9065 19.9997 39.9029ZM29.8617 37.2869L30.7097 35.3489C30.9867 34.5199 31.2857 33.6389 31.6007 32.7309C31.9157 31.8229 32.2357 30.8919 32.5457 29.9819C32.8457 29.0919 33.1597 28.1969 33.4687 27.3209C33.7777 26.4449 34.0457 25.6579 34.2687 24.9639C34.4127 24.5469 34.5517 24.1919 34.6817 23.9099C34.7894 23.6686 34.9131 23.4347 35.0517 23.2099C35.1421 23.0623 35.2423 22.9209 35.3517 22.7869C35.4517 22.6739 35.5077 22.6089 35.5517 22.5689C35.6857 22.4418 35.8352 22.3323 35.9967 22.2429C36.2784 22.0757 36.5936 21.9732 36.9197 21.9429V21.7259H32.1457V21.9429C32.3433 21.9617 32.5391 21.9951 32.7317 22.0429C32.9422 22.0912 33.1462 22.164 33.3397 22.2599C33.5181 22.3467 33.6799 22.4642 33.8177 22.6069C33.9522 22.7511 34.0242 22.9427 34.0177 23.1399C34.0177 23.2869 34.0027 23.5129 33.9737 23.8129C33.9015 24.3075 33.7853 24.7948 33.6267 25.2689C33.4667 25.7929 33.2877 26.3589 33.0947 26.9529L32.8587 27.6789L32.5037 28.7509C32.3227 29.3069 32.1307 29.8869 31.9167 30.5219C31.7167 31.1219 31.5377 31.6339 31.3737 32.0969C31.2097 32.5599 31.0737 32.9619 30.9607 33.2969C30.8477 33.6319 30.7757 33.8369 30.7327 33.9379C30.6387 33.6845 30.4931 33.2872 30.2957 32.7459L30.2427 32.6009C30.0027 31.9419 29.7507 31.2399 29.4927 30.5159C29.2227 29.7539 28.9307 28.9389 28.6247 28.0929C28.3187 27.2469 28.0447 26.4719 27.7997 25.7569C27.5547 25.0419 27.3537 24.4409 27.1917 23.9319C27.0868 23.646 27.0068 23.3516 26.9527 23.0519C26.9523 22.9464 26.9767 22.8422 27.0239 22.7479C27.0712 22.6535 27.14 22.5717 27.2247 22.5089C27.4069 22.363 27.6125 22.2491 27.8327 22.1719C28.0506 22.0936 28.2762 22.0389 28.5057 22.0089C28.7477 21.9769 28.8927 21.9569 28.9727 21.9429V21.7259H22.1727V21.9649C22.4747 21.9722 22.7743 22.0196 23.0637 22.1059C23.2847 22.1723 23.4937 22.2736 23.6827 22.4059C23.8319 22.512 23.9638 22.6405 24.0737 22.7869C24.1599 22.9035 24.2365 23.0269 24.3027 23.1559C24.5027 23.5699 24.6917 24.0039 24.8677 24.4479C25.0437 24.8919 25.2297 25.3819 25.4537 25.9799C25.1367 26.9739 24.8157 27.9429 24.4977 28.8589C24.1797 29.7749 23.8917 30.5979 23.6287 31.3359C23.3657 32.0739 23.1507 32.6759 22.9767 33.1609C22.8187 33.6029 22.6997 33.9319 22.6507 34.0609C22.4917 33.6269 22.2867 33.0839 22.0207 32.3989C21.7467 31.6909 21.4457 30.9059 21.1847 30.2259C20.8847 29.4549 20.5847 28.6619 20.2937 27.8689C19.9597 26.9689 19.7007 26.2689 19.4787 25.6629C19.2367 25.0019 19.0357 24.4249 18.8787 23.9469C18.7686 23.6565 18.6917 23.3546 18.6497 23.0469C18.6387 22.8319 18.7132 22.6212 18.8567 22.4609C18.9934 22.3168 19.1604 22.2051 19.3457 22.1339C19.5214 22.0656 19.7032 22.0147 19.8887 21.9819C20.0109 21.9588 20.1346 21.9444 20.2587 21.9389V21.7219H16.3197C16.04 21.6771 15.7697 21.5862 15.5197 21.4529C15.24 21.3155 14.9978 21.1123 14.8137 20.8609C14.6527 20.6009 14.5663 20.3017 14.5637 19.9959C14.5487 19.6469 14.5327 19.2259 14.5177 18.7439C14.5177 18.4869 14.5177 18.2439 14.5067 18.0279C14.4957 17.8119 14.4947 17.5789 14.4947 17.3109V15.1729H15.7237C16.1957 15.1729 16.6817 15.1539 17.1687 15.1149C17.6557 15.0759 18.1527 15.0199 18.6367 14.9449C19.1014 14.8736 19.5584 14.7591 20.0017 14.6029C20.424 14.4457 20.8285 14.2446 21.2087 14.0029C21.5974 13.7571 21.9464 13.4536 22.2437 13.1029C22.5464 12.7423 22.7885 12.335 22.9607 11.8969C23.1488 11.41 23.2421 10.8917 23.2357 10.3699C23.2553 9.53287 23.0256 8.70897 22.5757 8.00286C22.1584 7.35583 21.587 6.82254 20.9127 6.45086C20.2368 6.07485 19.4951 5.8318 18.7277 5.73486C17.8441 5.62963 16.9547 5.57986 16.0647 5.58586H15.0357C14.6757 5.58586 14.2627 5.58586 13.7717 5.59786C13.3427 5.60586 12.8877 5.60986 12.4177 5.60986C11.9647 5.60986 11.5387 5.60986 11.1537 5.62086C10.7687 5.63186 10.4417 5.63286 10.1407 5.63286H9.68475C12.3383 4.02559 15.3304 3.06007 18.4229 2.8132C21.5154 2.56632 24.6228 3.04492 27.4977 4.21086C29.774 5.13509 31.8524 6.48639 33.6207 8.19186C35.3701 9.86903 36.7726 11.8737 37.7487 14.0919C38.9056 16.7337 39.4116 19.6145 39.2244 22.4924C39.0372 25.3703 38.1621 28.1612 36.6727 30.6309C35.0025 33.3887 32.6593 35.6772 29.8627 37.2819L29.8617 37.2869ZM14.4947 14.8509V11.9399C14.4947 11.1879 14.4947 10.4399 14.5067 9.70986C14.5187 8.97986 14.5257 8.31886 14.5407 7.77486C14.5547 7.43386 14.5697 7.16186 14.5857 6.96786C14.6017 6.77386 14.6167 6.62886 14.6317 6.52286C14.6432 6.43439 14.6623 6.34706 14.6887 6.26186C14.7136 6.18372 14.7327 6.10383 14.7457 6.02286C14.8517 6.00753 14.9921 5.98853 15.1667 5.96586C15.4125 5.93912 15.6596 5.92776 15.9067 5.93186C16.3331 5.93122 16.7589 5.96164 17.1807 6.02286C17.7763 6.10615 18.3465 6.31831 18.8517 6.64456C19.3569 6.9708 19.7848 7.40328 20.1057 7.91186C20.5565 8.60994 20.79 9.42603 20.7767 10.2569C20.7863 11.1764 20.5164 12.0771 20.0027 12.8399C19.4635 13.6227 18.6789 14.2036 17.7727 14.4909C17.2803 14.6616 16.7669 14.7649 16.2467 14.7979C15.7067 14.8349 15.1177 14.8509 14.4947 14.8509Z" fill="#1B2124"/>
</svg>